<?xml version="1.0" encoding="utf-8"?>
<!-- Generator: Adobe Illustrator 22.0.1, SVG Export Plug-In . SVG Version: 6.00 Build 0)  -->
<svg version="1.1" id="Layer_1" xmlns="http://www.w3.org/2000/svg" xmlns:xlink="http://www.w3.org/1999/xlink" x="0px" y="0px"
	 viewBox="0 0 512 512" enable-background="new 0 0 512 512" xml:space="preserve">
<g>
	<defs>
		<rect id="SVGID_1_" width="512" height="512"/>
	</defs>
	<clipPath id="SVGID_2_">
		<use xlink:href="#SVGID_1_"  overflow="visible"/>
	</clipPath>
	<path clip-path="url(#SVGID_2_)" fill="#99A2F4" d="M512,256c0,141.4-114.6,256-256,256S0,397.4,0,256C0,119.1,107.5,7.3,242.7,0.3
		C247.1,0.1,251.5,0,256,0c3.8,0,7.6,0.1,11.4,0.2C403.5,6.2,512,118.4,512,256z"/>
</g>
<g>
	<defs>
		<rect id="SVGID_3_" width="512" height="512"/>
	</defs>
	<clipPath id="SVGID_4_">
		<use xlink:href="#SVGID_3_"  overflow="visible"/>
	</clipPath>
	<polygon clip-path="url(#SVGID_4_)" fill="#545454" points="429.5,336.4 328.2,192.7 322,184 322,183.8 288.7,136.6 256.2,90.2 
		256.2,90.2 256,90 224.4,135.5 190,183.8 190,184.3 184.9,191.6 82.6,336.4 112.4,381.4 190,323.9 190,324.1 190,324.2 193.1,326 
		256,362.3 256.2,362.3 256.2,362.2 318.9,326 322,324.2 322,324.1 322,323.9 399.6,381.4 	"/>
</g>
<g>
	<defs>
		<rect id="SVGID_5_" width="512" height="512"/>
	</defs>
	<clipPath id="SVGID_6_">
		<use xlink:href="#SVGID_5_"  overflow="visible"/>
	</clipPath>
	<polygon clip-path="url(#SVGID_6_)" fill="#545454" points="329,192.2 322.3,182.7 321.6,182.7 321.6,324.1 401.2,383.1 
		431.5,337.6 	"/>
</g>
<g>
	<defs>
		<rect id="SVGID_7_" width="512" height="512"/>
	</defs>
	<clipPath id="SVGID_8_">
		<use xlink:href="#SVGID_7_"  overflow="visible"/>
	</clipPath>
	<polygon clip-path="url(#SVGID_8_)" fill="#686868" points="192.2,182 190.4,182 184,191.1 80.5,337.6 110.8,383.1 192.2,322.7 	
		"/>
</g>
<g>
	<defs>
		<rect id="SVGID_9_" width="512" height="512"/>
	</defs>
	<clipPath id="SVGID_10_">
		<use xlink:href="#SVGID_9_"  overflow="visible"/>
	</clipPath>
	<polygon clip-path="url(#SVGID_10_)" fill="#9C9C9C" points="256.3,199 224,134.3 189.2,183.2 189.2,325.1 	"/>
</g>
<g>
	<defs>
		<rect id="SVGID_11_" width="512" height="512"/>
	</defs>
	<clipPath id="SVGID_12_">
		<use xlink:href="#SVGID_11_"  overflow="visible"/>
	</clipPath>
	<polygon clip-path="url(#SVGID_12_)" fill="#686868" points="322.8,325.1 322.8,183.2 289.1,135.4 255.9,199.2 	"/>
</g>
<g>
	<defs>
		<rect id="SVGID_13_" width="512" height="512"/>
	</defs>
	<clipPath id="SVGID_14_">
		<use xlink:href="#SVGID_13_"  overflow="visible"/>
	</clipPath>
	<polygon clip-path="url(#SVGID_14_)" fill="#828282" points="256.2,198.8 189.2,325.1 189.2,325.2 192.3,327.1 256,363.8 
		256.2,363.8 256.2,363.7 319.6,327.1 322.8,325.2 322.8,325.1 	"/>
</g>
<g>
	<defs>
		<rect id="SVGID_15_" width="512" height="512"/>
	</defs>
	<clipPath id="SVGID_16_">
		<use xlink:href="#SVGID_15_"  overflow="visible"/>
	</clipPath>
	<polygon clip-path="url(#SVGID_16_)" fill="#828282" points="256.2,88.5 256.2,88.5 256,88.3 224,134.3 256.2,199.2 289.1,135.4 	
		"/>
</g>
</svg>
