<?xml version="1.0" encoding="utf-8"?>
<!-- Generator: Adobe Illustrator 22.0.1, SVG Export Plug-In . SVG Version: 6.00 Build 0)  -->
<svg version="1.1" id="Layer_1" xmlns="http://www.w3.org/2000/svg" xmlns:xlink="http://www.w3.org/1999/xlink" x="0px" y="0px"
	 viewBox="0 0 512 512" enable-background="new 0 0 512 512" xml:space="preserve">
<g>
	<defs>
		<rect id="SVGID_1_" width="512" height="512"/>
	</defs>
	<clipPath id="SVGID_2_">
		<use xlink:href="#SVGID_1_"  overflow="visible"/>
	</clipPath>
	<path clip-path="url(#SVGID_2_)" fill="#EF8D5A" d="M258.3,258c-37.9,0-68.6-30.7-68.6-68.6s30.7-68.6,68.6-68.6
		c37.9,0,68.6,30.7,68.6,68.6S296.2,258,258.3,258z M423.7,220.7C423.7,128.1,348.6,53,256,53c-92.6,0-167.7,75.1-167.7,167.7
		c0,16.6,2.4,32.6,6.9,47.7C119.1,365,256.8,473,256.8,473s155.5-121.9,164.7-222.6l-0.4-0.1C422.7,240.7,423.7,230.8,423.7,220.7z"
		/>
</g>
</svg>
