<?xml version="1.0" encoding="utf-8"?>
<!-- Generator: Adobe Illustrator 22.0.1, SVG Export Plug-In . SVG Version: 6.00 Build 0)  -->
<svg version="1.1" id="Layer_1" xmlns="http://www.w3.org/2000/svg" xmlns:xlink="http://www.w3.org/1999/xlink" x="0px" y="0px"
	 viewBox="0 0 512 512" enable-background="new 0 0 512 512" xml:space="preserve">
<g>
	<defs>
		<rect id="SVGID_1_" width="512" height="512"/>
	</defs>
	<clipPath id="SVGID_2_">
		<use xlink:href="#SVGID_1_"  overflow="visible"/>
	</clipPath>
	<path clip-path="url(#SVGID_2_)" fill="#7F88DF" d="M370.3,286.7c-1.7,6.8-8.5,10.2-15.4,8.5l-95.6-18.8c-3.4,0-6.8-3.4-10.2-5.1
		c-6.8-3.4-10.2-8.5-10.2-15.4l0,0l3.4-136.5c0-8.5,6.8-13.7,13.7-13.7s13.7,6.8,13.7,13.7l1.7,117.8l88.7,30.7
		C368.6,269.7,372.1,278.2,370.3,286.7z M256,68.3C151.9,68.3,68.3,151.9,68.3,256S151.9,443.7,256,443.7S443.7,360.1,443.7,256
		S360.1,68.3,256,68.3z"/>
</g>
</svg>
