<?xml version="1.0" encoding="utf-8"?>
<!-- Generator: Adobe Illustrator 22.0.1, SVG Export Plug-In . SVG Version: 6.00 Build 0)  -->
<svg version="1.1" id="Layer_1" xmlns="http://www.w3.org/2000/svg" xmlns:xlink="http://www.w3.org/1999/xlink" x="0px" y="0px"
	 viewBox="0 0 512 512" enable-background="new 0 0 512 512" xml:space="preserve">
<g>
	<defs>
		<rect id="SVGID_1_" width="512" height="512"/>
	</defs>
	<clipPath id="SVGID_2_">
		<use xlink:href="#SVGID_1_"  overflow="visible"/>
	</clipPath>
	<path clip-path="url(#SVGID_2_)" fill="#EFC643" d="M469.4,292.6c0,15.1-10.6,25.7-10.6,25.7L318.6,458.9
		c-11.1,10.6-26,10.6-26,10.6c-15.1,0-25.7-10.6-25.7-10.6L62.6,254.3c-10.9-10.6-18.4-28.9-18.4-28.9c-7.6-18.3-7.6-33.4-7.6-33.4
		V73.1c0-14.9,10.9-25.7,10.9-25.7c10.9-10.9,25.7-10.9,25.7-10.9H192c15.1,0,33.4,7.6,33.4,7.6c18.3,7.6,29.1,18.4,29.1,18.4
		l204.3,204C469.4,277.7,469.4,292.6,469.4,292.6z M164.6,128c0-15.1-10.7-25.9-10.7-25.9C143.1,91.4,128,91.4,128,91.4
		c-15.1,0-25.9,10.7-25.9,10.7C91.4,112.9,91.4,128,91.4,128c0,15.1,10.7,25.9,10.7,25.9c10.7,10.7,25.9,10.7,25.9,10.7
		c15.1,0,25.9-10.7,25.9-10.7C164.6,143.1,164.6,128,164.6,128z"/>
</g>
</svg>
